<?xml version="1.0" encoding="UTF-8"?>
<svg version="1.1" xmlns="http://www.w3.org/2000/svg" width="367" height="137">
<path d="M0 0 C7.24487049 -0.02464113 14.48971682 -0.0428318 21.73461914 -0.05493164 C24.20142033 -0.05997356 26.66821852 -0.06680691 29.13500977 -0.07543945 C32.67204529 -0.08751125 36.20904145 -0.09322956 39.74609375 -0.09765625 C40.85649521 -0.10281754 41.96689667 -0.10797882 43.11094666 -0.11329651 C44.64242088 -0.11340981 44.64242088 -0.11340981 46.20483398 -0.11352539 C47.10862289 -0.115746 48.0124118 -0.11796661 48.94358826 -0.12025452 C51 0 51 0 52 1 C52.0979057 2.49738124 52.12974864 3.99942892 52.125 5.5 C52.12886719 6.72203125 52.12886719 6.72203125 52.1328125 7.96875 C52 10 52 10 51 11 C49.5112814 11.08669432 48.018555 11.10703494 46.52734375 11.09765625 C45.62822266 11.09443359 44.72910156 11.09121094 43.80273438 11.08789062 C42.85720703 11.07951172 41.91167969 11.07113281 40.9375 11.0625 C39.98810547 11.05798828 39.03871094 11.05347656 38.06054688 11.04882812 C35.70700469 11.03700128 33.35349468 11.01906521 31 11 C31 15.95 31 20.9 31 26 C35.62 26 40.24 26 45 26 C45 33 45 33 44 37 C39.71 37 35.42 37 31 37 C31.01160156 38.79308594 31.02320313 40.58617187 31.03515625 42.43359375 C31.04453229 44.76822813 31.05363269 47.10286363 31.0625 49.4375 C31.07087891 50.62150391 31.07925781 51.80550781 31.08789062 53.02539062 C31.09272461 54.71245117 31.09272461 54.71245117 31.09765625 56.43359375 C31.10551147 57.99678345 31.10551147 57.99678345 31.11352539 59.59155273 C31 62 31 62 30 63 C28.59651265 63.09860131 27.18819523 63.13078937 25.78125 63.1328125 C24.50701172 63.13474609 24.50701172 63.13474609 23.20703125 63.13671875 C21.86705078 63.13091797 21.86705078 63.13091797 20.5 63.125 C19.60667969 63.12886719 18.71335937 63.13273437 17.79296875 63.13671875 C16.94347656 63.13542969 16.09398438 63.13414063 15.21875 63.1328125 C14.43435547 63.13168457 13.64996094 63.13055664 12.84179688 63.12939453 C11 63 11 63 10 62 C9.90666295 60.40389018 9.88254628 58.80366572 9.88647461 57.20483398 C9.88655014 56.18385117 9.88662567 55.16286835 9.88670349 54.11094666 C9.89186478 53.0005452 9.89702606 51.89014374 9.90234375 50.74609375 C9.9037587 49.61551041 9.90517365 48.48492706 9.90663147 47.32008362 C9.91224981 43.69252935 9.92480542 40.06503576 9.9375 36.4375 C9.94251264 33.98502693 9.94707595 31.5325529 9.95117188 29.08007812 C9.9622252 23.05336187 9.97950212 17.02669124 10 11 C6.7 11 3.4 11 0 11 C0 7.37 0 3.74 0 0 Z " fill="#F33632" transform="translate(99,29)"/>
<path d="M0 0 C3.3 0 6.6 0 10 0 C10.34933594 0.84304687 10.69867188 1.68609375 11.05859375 2.5546875 C11.51363281 3.65039062 11.96867188 4.74609375 12.4375 5.875 C13.11619141 7.51082031 13.11619141 7.51082031 13.80859375 9.1796875 C14.49543463 10.80558624 15.21065887 12.42131774 16 14 C17.65 9.38 19.3 4.76 21 0 C28.71484375 -0.09765625 28.71484375 -0.09765625 31 0 C32.76723811 1.76723811 32.12762833 4.3031884 32.12939453 6.69726562 C32.13254669 7.91522827 32.13569885 9.13319092 32.13894653 10.38806152 C32.13715675 11.72745805 32.1351058 13.06685424 32.1328125 14.40625 C32.1334856 15.7700604 32.13445567 17.13387068 32.13571167 18.49768066 C32.13718838 21.35930521 32.13503497 24.2208986 32.13037109 27.08251953 C32.12467381 30.75818614 32.12795296 34.43377974 32.13394356 38.10944366 C32.13754991 40.92662104 32.13641025 43.74378098 32.13381577 46.56095886 C32.1331467 47.91660063 32.13397421 49.27224396 32.13629532 50.62788391 C32.13882301 52.51950044 32.13429014 54.41112249 32.12939453 56.30273438 C32.12859894 57.38115601 32.12780334 58.45957764 32.12698364 59.57067871 C32 62 32 62 31 63 C29.50261876 63.0979057 28.00057108 63.12974864 26.5 63.125 C25.6853125 63.12757812 24.870625 63.13015625 24.03125 63.1328125 C22 63 22 63 21 62 C20.84213692 60.14825294 20.74892644 58.2909089 20.68359375 56.43359375 C20.64169922 55.30888672 20.59980469 54.18417969 20.55664062 53.02539062 C20.51732422 51.84138672 20.47800781 50.65738281 20.4375 49.4375 C20.39431641 48.24962891 20.35113281 47.06175781 20.30664062 45.83789062 C20.20016454 42.89205216 20.09815159 39.9461257 20 37 C17.03 37 14.06 37 11 37 C11.00523682 37.7520874 11.01047363 38.5041748 11.01586914 39.27905273 C11.03657227 42.66519342 11.04963877 46.05132084 11.0625 49.4375 C11.07087891 50.62150391 11.07925781 51.80550781 11.08789062 53.02539062 C11.09111328 54.15009766 11.09433594 55.27480469 11.09765625 56.43359375 C11.10289307 57.47572021 11.10812988 58.51784668 11.11352539 59.59155273 C11 62 11 62 10 63 C8.31391034 63.07205511 6.62499341 63.08386068 4.9375 63.0625 C4.01839844 63.05347656 3.09929687 63.04445312 2.15234375 63.03515625 C1.44207031 63.02355469 0.73179687 63.01195312 0 63 C-0.73139198 50.43573059 -1.10631864 37.8990676 -1.125 25.3125 C-1.12951172 24.06130371 -1.13402344 22.81010742 -1.13867188 21.52099609 C-1.12707311 14.28046582 -0.76947629 7.20009955 0 0 Z " fill="#FC914D" transform="translate(230,29)"/>
<path d="M0 0 C7.71484375 -0.09765625 7.71484375 -0.09765625 10 0 C11.76723811 1.76723811 11.12762833 4.3031884 11.12939453 6.69726562 C11.13254669 7.91522827 11.13569885 9.13319092 11.13894653 10.38806152 C11.13715675 11.72745805 11.1351058 13.06685424 11.1328125 14.40625 C11.1334856 15.7700604 11.13445567 17.13387068 11.13571167 18.49768066 C11.13718838 21.35930521 11.13503497 24.2208986 11.13037109 27.08251953 C11.12467381 30.75818614 11.12795296 34.43377974 11.13394356 38.10944366 C11.13754991 40.92662104 11.13641025 43.74378098 11.13381577 46.56095886 C11.1331467 47.91660063 11.13397421 49.27224396 11.13629532 50.62788391 C11.13882301 52.51950044 11.13429014 54.41112249 11.12939453 56.30273438 C11.12859894 57.38115601 11.12780334 58.45957764 11.12698364 59.57067871 C11 62 11 62 10 63 C8.50261876 63.0979057 7.00057108 63.12974864 5.5 63.125 C4.6853125 63.12757812 3.870625 63.13015625 3.03125 63.1328125 C1 63 1 63 0 62 C-0.13339534 60.39156366 -0.22913598 58.77997007 -0.30859375 57.16796875 C-0.83881635 50.75445432 -2.73754714 45.275462 -5.0625 39.3125 C-5.43955078 38.31283203 -5.81660156 37.31316406 -6.20507812 36.28320312 C-7.12460103 33.85054125 -8.05625273 31.42334289 -9 29 C-9.02505615 29.99443115 -9.0501123 30.9888623 -9.07592773 32.01342773 C-9.16984882 35.69048747 -9.27010619 39.3673515 -9.37231445 43.04418945 C-9.41572146 44.637893 -9.45739219 46.2316448 -9.49731445 47.82543945 C-9.55487807 50.11163908 -9.61861149 52.39759449 -9.68359375 54.68359375 C-9.70866249 55.7586039 -9.70866249 55.7586039 -9.73423767 56.85533142 C-9.88612829 61.88612829 -9.88612829 61.88612829 -11 63 C-12.49738124 63.0979057 -13.99942892 63.12974864 -15.5 63.125 C-16.3146875 63.12757812 -17.129375 63.13015625 -17.96875 63.1328125 C-20 63 -20 63 -21 62 C-21.11969676 60.30867501 -21.17015353 58.61239522 -21.19287109 56.91699219 C-21.20893402 55.83206482 -21.22499695 54.74713745 -21.24154663 53.6293335 C-21.28584462 48.65312181 -21.32707334 43.67704627 -21.35009766 38.70068359 C-21.36665465 36.07396585 -21.39394081 33.4472931 -21.43212891 30.82080078 C-21.48682877 27.04175336 -21.50876386 23.26376474 -21.5234375 19.484375 C-21.55744156 17.72320343 -21.55744156 17.72320343 -21.59213257 15.92645264 C-21.56856637 6.85121924 -21.56856637 6.85121924 -18.52978516 3.78222656 C-17.69495605 3.1940918 -16.86012695 2.60595703 -16 2 C-15.67 1.67 -15.34 1.34 -15 1 C-12.69 1 -10.38 1 -8 1 C-5.69 6.94 -3.38 12.88 -1 19 C-0.67 12.73 -0.34 6.46 0 0 Z " fill="#F73131" transform="translate(46,29)"/>
<path d="M0 0 C5.094375 -0.020625 10.18875 -0.04125 15.4375 -0.0625 C17.04681396 -0.071604 18.65612793 -0.08070801 20.31420898 -0.09008789 C21.57048096 -0.09258545 22.82675293 -0.09508301 24.12109375 -0.09765625 C26.06133423 -0.10551147 26.06133423 -0.10551147 28.04077148 -0.11352539 C31 0 31 0 32 1 C32 4.3 32 7.6 32 11 C25.07 11 18.14 11 11 11 C11 15.29 11 19.58 11 24 C14.0009375 23.2884375 14.0009375 23.2884375 17.0625 22.5625 C26.36965812 20.42094017 26.36965812 20.42094017 31 20 C32.92257175 21.92257175 32.12908424 24.78085108 32.13894653 27.33874512 C32.1369223 28.22727173 32.13489807 29.11579834 32.1328125 30.03125 C32.13376923 30.93750122 32.13472595 31.84375244 32.13571167 32.77746582 C32.13639353 34.69751047 32.13453882 36.61755741 32.13037109 38.53759766 C32.12502292 41.48735704 32.13031588 44.43696414 32.13671875 47.38671875 C32.13605797 49.24739617 32.13477681 51.1080735 32.1328125 52.96875 C32.13483673 53.85727661 32.13686096 54.74580322 32.13894653 55.66125488 C32.11494988 61.88505012 32.11494988 61.88505012 31 63 C28.70848583 63.08790975 26.41427476 63.10694038 24.12109375 63.09765625 C23.09110008 63.09553383 23.09110008 63.09553383 22.04029846 63.09336853 C19.83932199 63.08775479 17.63844591 63.07520007 15.4375 63.0625 C13.94856917 63.05748676 12.45963676 63.05292355 10.97070312 63.04882812 C7.31376925 63.03778093 3.65689442 63.02050713 0 63 C0 59.37 0 55.74 0 52 C6.93 52 13.86 52 21 52 C20.505 42.595 20.505 42.595 20 33 C14.9131771 34.31111734 14.9131771 34.31111734 9.82910156 35.6328125 C6.41106685 36.50066615 3.5481131 37 0 37 C0 24.79 0 12.58 0 0 Z " fill="#F89150" transform="translate(304,29)"/>
<path d="M0 0 C0.68429077 -0.00095673 1.36858154 -0.00191345 2.0736084 -0.00289917 C3.52286877 -0.0035808 4.97213218 -0.00172773 6.42138672 0.00244141 C8.64687928 0.00778998 10.87217001 0.0024959 13.09765625 -0.00390625 C14.50260461 -0.00324547 15.90755285 -0.0019643 17.3125 0 C18.59962891 0.00112793 19.88675781 0.00225586 21.21289062 0.00341797 C24.15625 0.1328125 24.15625 0.1328125 25.15625 1.1328125 C25.2541557 2.63019374 25.28599864 4.13224142 25.28125 5.6328125 C25.28511719 6.85484375 25.28511719 6.85484375 25.2890625 8.1015625 C25.15625 10.1328125 25.15625 10.1328125 24.15625 11.1328125 C22.59452255 11.21966853 21.02895656 11.23983469 19.46484375 11.23046875 C18.52060547 11.22724609 17.57636719 11.22402344 16.60351562 11.22070312 C15.61029297 11.21232422 14.61707031 11.20394531 13.59375 11.1953125 C12.59666016 11.19080078 11.59957031 11.18628906 10.57226562 11.18164062 C8.10023513 11.16981273 5.62823528 11.15187665 3.15625 11.1328125 C3.15625 16.0828125 3.15625 21.0328125 3.15625 26.1328125 C8.10625 26.1328125 13.05625 26.1328125 18.15625 26.1328125 C17.82625 29.7628125 17.49625 33.3928125 17.15625 37.1328125 C12.53625 37.1328125 7.91625 37.1328125 3.15625 37.1328125 C3.48625 41.7528125 3.81625 46.3728125 4.15625 51.1328125 C5.58839844 51.19339844 7.02054687 51.25398438 8.49609375 51.31640625 C10.36199041 51.40079354 12.22787524 51.48544243 14.09375 51.5703125 C15.03927734 51.60962891 15.98480469 51.64894531 16.95898438 51.68945312 C18.30766602 51.75229492 18.30766602 51.75229492 19.68359375 51.81640625 C20.51624756 51.85306396 21.34890137 51.88972168 22.20678711 51.92749023 C24.15625 52.1328125 24.15625 52.1328125 25.15625 53.1328125 C25.2541557 54.63019374 25.28599864 56.13224142 25.28125 57.6328125 C25.28511719 58.85484375 25.28511719 58.85484375 25.2890625 60.1015625 C25.15625 62.1328125 25.15625 62.1328125 24.15625 63.1328125 C21.86473583 63.22072225 19.57052476 63.23975288 17.27734375 63.23046875 C16.24735008 63.22834633 16.24735008 63.22834633 15.19654846 63.22618103 C12.99557199 63.22056729 10.79469591 63.20801257 8.59375 63.1953125 C7.10481917 63.19029926 5.61588676 63.18573605 4.12695312 63.18164062 C0.47001925 63.17059343 -3.18685558 63.15331963 -6.84375 63.1328125 C-8.18114032 60.45803186 -7.97089329 58.40880395 -7.97314453 55.41381836 C-7.97629669 54.215952 -7.97944885 53.01808563 -7.98269653 51.78392029 C-7.9806723 50.48495316 -7.97864807 49.18598602 -7.9765625 47.84765625 C-7.97723582 46.50769534 -7.97820608 45.16773454 -7.97946167 43.82777405 C-7.98093681 41.01920407 -7.97878963 38.21066589 -7.97412109 35.40209961 C-7.9684184 31.79484248 -7.97170736 28.18765965 -7.97769356 24.58040524 C-7.98129943 21.81384212 -7.98016056 19.04729675 -7.97756577 16.28073311 C-7.97657067 14.30140764 -7.97961688 12.3220815 -7.98269653 10.34275818 C-7.97954437 9.14804398 -7.97639221 7.95332977 -7.97314453 6.72241211 C-7.97234894 5.66477158 -7.97155334 4.60713104 -7.97073364 3.5174408 C-7.70929549 -1.3921113 -4.16670085 0.00365134 0 0 Z " fill="#F79150" transform="translate(273.84375,28.8671875)"/>
<path d="M0 0 C10.23 0 20.46 0 31 0 C33.60341656 2.60341656 32 7.31821299 32 11 C25.07 11 18.14 11 11 11 C11 15.95 11 20.9 11 26 C15.62 26 20.24 26 25 26 C25 33 25 33 24 37 C19.71 37 15.42 37 11 37 C11.33 41.62 11.66 46.24 12 51 C18.6 51.33 25.2 51.66 32 52 C32 55.3 32 58.6 32 62 C31.67 62.33 31.34 62.66 31 63 C20.77 63 10.54 63 0 63 C0 42.21 0 21.42 0 0 Z " fill="#F33131" transform="translate(62,29)"/>
<path d="M0 0 C0.66209473 -0.00095673 1.32418945 -0.00191345 2.00634766 -0.00289917 C3.40852961 -0.00358076 4.8107147 -0.00172792 6.21289062 0.00244141 C8.36595713 0.00779004 10.51881502 0.0024958 12.671875 -0.00390625 C14.03125046 -0.00324546 15.3906258 -0.00196429 16.75 0 C18.61785156 0.00169189 18.61785156 0.00169189 20.5234375 0.00341797 C23.375 0.1328125 23.375 0.1328125 24.375 1.1328125 C24.51757189 4.46899481 24.41728157 7.79256856 24.375 11.1328125 C20.745 11.1328125 17.115 11.1328125 13.375 11.1328125 C13.375 24.6628125 13.375 38.1928125 13.375 52.1328125 C17.005 52.1328125 20.635 52.1328125 24.375 52.1328125 C24.47265625 59.84765625 24.47265625 59.84765625 24.375 62.1328125 C23.375 63.1328125 23.375 63.1328125 20.41577148 63.24633789 C19.12227783 63.24110107 17.82878418 63.23586426 16.49609375 63.23046875 C15.46610008 63.22834633 15.46610008 63.22834633 14.41529846 63.22618103 C12.21432199 63.22056729 10.01344591 63.20801257 7.8125 63.1953125 C6.32356917 63.19029926 4.83463676 63.18573605 3.34570312 63.18164062 C-0.31123075 63.17059343 -3.96810558 63.15331963 -7.625 63.1328125 C-7.625 59.5028125 -7.625 55.8728125 -7.625 52.1328125 C-4.325 52.1328125 -1.025 52.1328125 2.375 52.1328125 C2.375 38.6028125 2.375 25.0728125 2.375 11.1328125 C-0.925 11.1328125 -4.225 11.1328125 -7.625 11.1328125 C-7.72265625 3.41796875 -7.72265625 3.41796875 -7.625 1.1328125 C-5.74180732 -0.75038018 -2.50569863 0.00226965 0 0 Z " fill="#F9914F" transform="translate(163.625,28.8671875)"/>
<path d="M0 0 C3.3 0 6.6 0 10 0 C11 1 11 1 11.12025452 3.05641174 C11.1169236 4.41209511 11.1169236 4.41209511 11.11352539 5.79516602 C11.11344986 6.81614883 11.11337433 7.83713165 11.11329651 8.88905334 C11.10813522 9.9994548 11.10297394 11.10985626 11.09765625 12.25390625 C11.0962413 13.38448959 11.09482635 14.51507294 11.09336853 15.67991638 C11.08775019 19.30747065 11.07519458 22.93496424 11.0625 26.5625 C11.05748736 29.01497307 11.05292405 31.4674471 11.04882812 33.91992188 C11.0377748 39.94663545 11.02101884 45.97331339 11 52 C12.21780151 51.88519287 12.21780151 51.88519287 13.46020508 51.76806641 C14.53165771 51.67187012 15.60311035 51.57567383 16.70703125 51.4765625 C17.76639893 51.37939941 18.8257666 51.28223633 19.91723633 51.18212891 C23.80577092 50.95239526 27.17814041 51.27889442 31 52 C32 53 32 53 32.1328125 55.03125 C32.13023437 55.8459375 32.12765625 56.660625 32.125 57.5 C32.12886719 58.72203125 32.12886719 58.72203125 32.1328125 59.96875 C32 62 32 62 31 63 C20.77 63 10.54 63 0 63 C0 42.21 0 21.42 0 0 Z " fill="#F9914F" transform="translate(193,29)"/>
<path d="M0 0 C3.3 0 6.6 0 10 0 C10 4.95 10 9.9 10 15 C14.62 15 19.24 15 24 15 C24 22 24 22 23 26 C18.71 26 14.42 26 10 26 C10.01160156 27.79308594 10.02320313 29.58617188 10.03515625 31.43359375 C10.04453229 33.76822813 10.05363269 36.10286363 10.0625 38.4375 C10.07087891 39.62150391 10.07925781 40.80550781 10.08789062 42.02539062 C10.09111328 43.15009766 10.09433594 44.27480469 10.09765625 45.43359375 C10.10289307 46.47572021 10.10812988 47.51784668 10.11352539 48.59155273 C10 51 10 51 9 52 C6.03 52 3.06 52 0 52 C0 34.84 0 17.68 0 0 Z " fill="#FB914F" transform="translate(120,40)"/>
<path d="M0 0 C3.31255326 -0.02683436 6.62489183 -0.0467578 9.9375 -0.0625 C10.88302734 -0.07087891 11.82855469 -0.07925781 12.80273438 -0.08789062 C14.15141602 -0.09272461 14.15141602 -0.09272461 15.52734375 -0.09765625 C16.77632446 -0.10551147 16.77632446 -0.10551147 18.05053711 -0.11352539 C20 0 20 0 21 1 C21.0979057 2.49738124 21.12974864 3.99942892 21.125 5.5 C21.12886719 6.72203125 21.12886719 6.72203125 21.1328125 7.96875 C21 10 21 10 20 11 C18.5112814 11.08669432 17.018555 11.10703494 15.52734375 11.09765625 C14.62822266 11.09443359 13.72910156 11.09121094 12.80273438 11.08789062 C11.85720703 11.07951172 10.91167969 11.07113281 9.9375 11.0625 C8.98810547 11.05798828 8.03871094 11.05347656 7.06054688 11.04882812 C4.70700469 11.03700128 2.35349468 11.01906521 0 11 C0 7.37 0 3.74 0 0 Z " fill="#FC904C" transform="translate(130,29)"/>
<path d="M0 0 C3.3 0 6.6 0 10 0 C11.76723811 1.76723811 11.12762833 4.3031884 11.12939453 6.69726562 C11.13254669 7.91522827 11.13569885 9.13319092 11.13894653 10.38806152 C11.13715675 11.72745805 11.1351058 13.06685424 11.1328125 14.40625 C11.1334856 15.7700604 11.13445567 17.13387068 11.13571167 18.49768066 C11.13718838 21.35930521 11.13503497 24.2208986 11.13037109 27.08251953 C11.12467381 30.75818614 11.12795296 34.43377974 11.13394356 38.10944366 C11.13754991 40.92662104 11.13641025 43.74378098 11.13381577 46.56095886 C11.1331467 47.91660063 11.13397421 49.27224396 11.13629532 50.62788391 C11.13882301 52.51950044 11.13429014 54.41112249 11.12939453 56.30273438 C11.12859894 57.38115601 11.12780334 58.45957764 11.12698364 59.57067871 C11 62 11 62 10 63 C8.48071962 63.07179964 6.95832518 63.08392007 5.4375 63.0625 C4.61121094 63.05347656 3.78492188 63.04445312 2.93359375 63.03515625 C2.29550781 63.02355469 1.65742187 63.01195312 1 63 C1 62.67 1 62.34 1 62 C3.64 62 6.28 62 9 62 C9 42.2 9 22.4 9 2 C6.36 2 3.72 2 1 2 C1 7.94 1 13.88 1 20 C0.67 20 0.34 20 0 20 C0 13.4 0 6.8 0 0 Z " fill="#CF3736" transform="translate(46,29)"/>
<path d="M0 0 C4.25414623 -0.02465622 8.50825498 -0.04283899 12.76245117 -0.05493164 C14.21070073 -0.05997101 15.65894517 -0.06680253 17.10717773 -0.07543945 C19.18474588 -0.08752247 21.26224697 -0.09323211 23.33984375 -0.09765625 C24.59144287 -0.10289307 25.84304199 -0.10812988 27.13256836 -0.11352539 C30 0 30 0 31 1 C31.14257189 4.33618231 31.04228157 7.65975606 31 11 C27.37 11 23.74 11 20 11 C20 24.2 20 37.4 20 51 C19.34 51 18.68 51 18 51 C17.97535295 45.32169922 17.95716538 39.64342931 17.94506836 33.96508789 C17.94002744 32.03181415 17.93319481 30.09854424 17.92456055 28.1652832 C17.91248435 25.39273128 17.90676943 22.62022959 17.90234375 19.84765625 C17.89718246 18.97786636 17.89202118 18.10807648 17.88670349 17.21192932 C17.88650815 15.14094186 17.93791832 13.07005676 18 11 C19 10 19 10 21.50390625 9.90234375 C23.01791016 9.91974609 23.01791016 9.91974609 24.5625 9.9375 C25.57441406 9.94652344 26.58632812 9.95554687 27.62890625 9.96484375 C28.80259766 9.98224609 28.80259766 9.98224609 30 10 C29.74438677 7.6568787 29.40729228 5.32156597 29 3 C26.26321275 1.63160637 23.95735576 1.78365182 20.8984375 1.68359375 C19.68671875 1.64169922 18.475 1.59980469 17.2265625 1.55664062 C15.95554688 1.51732422 14.68453125 1.47800781 13.375 1.4375 C11.456875 1.37272461 11.456875 1.37272461 9.5 1.30664062 C6.33344652 1.20030114 3.16681247 1.09827167 0 1 C0 0.67 0 0.34 0 0 Z " fill="#E28F5C" transform="translate(157,29)"/>
<path d="M0 0 C1.64574566 -0.02688151 3.29161413 -0.04634123 4.9375 -0.0625 C5.85402344 -0.07410156 6.77054687 -0.08570312 7.71484375 -0.09765625 C10 0 10 0 11 1 C11.09915795 2.89698849 11.12799314 4.79768787 11.12939453 6.69726562 C11.13254669 7.91522827 11.13569885 9.13319092 11.13894653 10.38806152 C11.13715675 11.72745805 11.1351058 13.06685424 11.1328125 14.40625 C11.1334856 15.7700604 11.13445567 17.13387068 11.13571167 18.49768066 C11.13718838 21.35930521 11.13503497 24.2208986 11.13037109 27.08251953 C11.12467381 30.75818614 11.12795296 34.43377974 11.13394356 38.10944366 C11.13754991 40.92662104 11.13641025 43.74378098 11.13381577 46.56095886 C11.1331467 47.91660063 11.13397421 49.27224396 11.13629532 50.62788391 C11.13882301 52.51950044 11.13429014 54.41112249 11.12939453 56.30273438 C11.12859894 57.38115601 11.12780334 58.45957764 11.12698364 59.57067871 C11 62 11 62 10 63 C8.48071962 63.07179964 6.95832518 63.08392007 5.4375 63.0625 C4.61121094 63.05347656 3.78492188 63.04445312 2.93359375 63.03515625 C2.29550781 63.02355469 1.65742188 63.01195312 1 63 C1 62.67 1 62.34 1 62 C3.64 62 6.28 62 9 62 C9 42.2 9 22.4 9 2 C6.36 2.33 3.72 2.66 1 3 C0.67 4.32 0.34 5.64 0 7 C0.66 7.33 1.32 7.66 2 8 C2 8.66 2 9.32 2 10 C0.68 9.67 -0.64 9.34 -2 9 C-2.33 10.98 -2.66 12.96 -3 15 C-4.43410153 11.21180727 -3.51009497 8.93478721 -2.0625 5.25 C-1.49208984 3.77273437 -1.49208984 3.77273437 -0.91015625 2.265625 C-0.60980469 1.51796875 -0.30945313 0.7703125 0 0 Z " fill="#D38C5F" transform="translate(251,29)"/>
<path d="M0 0 C0.33 0 0.66 0 1 0 C1.10784321 17.69790086 1.11446843 35.32771488 0 53 C-0.33 53 -0.66 53 -1 53 C-2.05129446 35.99155747 -2.11165965 19.03239192 -2 2 C-1.34 2 -0.68 2 0 2 C0 1.34 0 0.68 0 0 Z " fill="#F99D5F" transform="translate(231,38)"/>
<path d="M0 0 C1.99954746 -0.04254356 4.00041636 -0.04080783 6 0 C7 1 7 1 7.1328125 3.03125 C7.13023437 3.8459375 7.12765625 4.660625 7.125 5.5 C7.12886719 6.72203125 7.12886719 6.72203125 7.1328125 7.96875 C7 10 7 10 6 11 C3.70848583 11.08790975 1.41427476 11.10694038 -0.87890625 11.09765625 C-1.90889992 11.09553383 -1.90889992 11.09553383 -2.95970154 11.09336853 C-5.16067801 11.08775479 -7.36155409 11.07520007 -9.5625 11.0625 C-11.05143083 11.05748676 -12.54036324 11.05292355 -14.02929688 11.04882812 C-17.68623075 11.03778093 -21.34310558 11.02050713 -25 11 C-25 7.7 -25 4.4 -25 1 C-24.34 1 -23.68 1 -23 1 C-22.67 3.64 -22.34 6.28 -22 9 C-13.09 9 -4.18 9 5 9 C5 6.36 5 3.72 5 1 C3.35 1 1.7 1 0 1 C0 0.67 0 0.34 0 0 Z " fill="#E9905F" transform="translate(218,81)"/>
<path d="M0 0 C0.99 0 1.98 0 3 0 C2.67 10.23 2.34 20.46 2 31 C0 29 0 29 -0.22705078 26.11083984 C-0.21657715 24.90637207 -0.20610352 23.7019043 -0.1953125 22.4609375 C-0.18564453 20.50800781 -0.18564453 20.50800781 -0.17578125 18.515625 C-0.15906929 17.13541405 -0.14213939 15.75520571 -0.125 14.375 C-0.11497006 12.98698548 -0.10584423 11.59896411 -0.09765625 10.2109375 C-0.07401863 6.80711974 -0.04106867 3.40364494 0 0 Z " fill="#E99862" transform="translate(239,59)"/>
<path d="M0 0 C0.33 0 0.66 0 1 0 C1.02917237 4.52081966 1.0468568 9.04161488 1.0625 13.5625 C1.07087891 14.83931641 1.07925781 16.11613281 1.08789062 17.43164062 C1.09111328 18.67236328 1.09433594 19.91308594 1.09765625 21.19140625 C1.10289307 22.32779541 1.10812988 23.46418457 1.11352539 24.63500977 C0.99486905 28.15208567 0.55780511 31.52771145 0 35 C-0.33 35 -0.66 35 -1 35 C-1.19244514 30.49807684 -1.37113658 25.99589691 -1.53710938 21.49291992 C-1.59550403 19.96119563 -1.65765305 18.42960967 -1.72363281 16.89819336 C-1.81782927 14.69670803 -1.89850637 12.49507811 -1.9765625 10.29296875 C-2.00875885 9.60849167 -2.0409552 8.92401459 -2.0741272 8.21879578 C-2.19040732 4.52700357 -2.11526175 3.17289262 0 0 Z " fill="#E6925C" transform="translate(252,56)"/>
<path d="M0 0 C3.31248187 -0.02888146 6.62493167 -0.04675799 9.9375 -0.0625 C10.88302734 -0.07087891 11.82855469 -0.07925781 12.80273438 -0.08789062 C14.15141602 -0.09272461 14.15141602 -0.09272461 15.52734375 -0.09765625 C16.77632446 -0.10551147 16.77632446 -0.10551147 18.05053711 -0.11352539 C20 0 20 0 21 1 C21.0979057 2.49738124 21.12974864 3.99942892 21.125 5.5 C21.12886719 6.72203125 21.12886719 6.72203125 21.1328125 7.96875 C21 10 21 10 20 11 C18.5112814 11.08669432 17.018555 11.10703494 15.52734375 11.09765625 C14.62822266 11.09443359 13.72910156 11.09121094 12.80273438 11.08789062 C11.85720703 11.07951172 10.91167969 11.07113281 9.9375 11.0625 C8.98810547 11.05798828 8.03871094 11.05347656 7.06054688 11.04882812 C4.70696935 11.0370011 2.35351523 11.02052025 0 11 C0 10.67 0 10.34 0 10 C6.27 10 12.54 10 19 10 C19 7.36 19 4.72 19 2 C12.73 1.67 6.46 1.34 0 1 C0 0.67 0 0.34 0 0 Z " fill="#D78959" transform="translate(130,29)"/>
<path d="M0 0 C3.47914941 -0.02887814 6.95826831 -0.04675687 10.4375 -0.0625 C11.92733398 -0.07506836 11.92733398 -0.07506836 13.44726562 -0.08789062 C14.39150391 -0.09111328 15.33574219 -0.09433594 16.30859375 -0.09765625 C17.62041626 -0.10551147 17.62041626 -0.10551147 18.95874023 -0.11352539 C21 0 21 0 22 1 C22.14115161 3.67058851 22.04247107 6.32432238 22 9 C21.34 8.34 20.68 7.68 20 7 C20 5.02 20 3.04 20 1 C16.04 1 12.08 1 8 1 C7.67 1.99 7.34 2.98 7 4 C4.9375 4.6875 4.9375 4.6875 3 5 C3 4.34 3 3.68 3 3 C2.01 2.67 1.02 2.34 0 2 C0 1.34 0 0.68 0 0 Z " fill="#F1985F" transform="translate(277,81)"/>
<path d="M0 0 C4.25414623 -0.02465622 8.50825498 -0.04283899 12.76245117 -0.05493164 C14.21070073 -0.05997101 15.65894517 -0.06680253 17.10717773 -0.07543945 C19.18474588 -0.08752247 21.26224697 -0.09323211 23.33984375 -0.09765625 C24.59144287 -0.10289307 25.84304199 -0.10812988 27.13256836 -0.11352539 C30 0 30 0 31 1 C31.14257189 4.33618231 31.04228157 7.65975606 31 11 C27.7 11 24.4 11 21 11 C21 10.67 21 10.34 21 10 C23.97 10 26.94 10 30 10 C29.74438677 7.6568787 29.40729228 5.32156597 29 3 C26.26321275 1.63160637 23.95735576 1.78365182 20.8984375 1.68359375 C19.68671875 1.64169922 18.475 1.59980469 17.2265625 1.55664062 C15.95554688 1.51732422 14.68453125 1.47800781 13.375 1.4375 C11.456875 1.37272461 11.456875 1.37272461 9.5 1.30664062 C6.33344652 1.20030114 3.16681247 1.09827167 0 1 C0 0.67 0 0.34 0 0 Z " fill="#D58A5C" transform="translate(157,29)"/>
<path d="M0 0 C0.33 0 0.66 0 1 0 C1 6.93 1 13.86 1 21 C-2.35661695 22.67830848 -5.36135594 21.6353188 -9 21 C-9.33 20.34 -9.66 19.68 -10 19 C-6.7 19 -3.4 19 0 19 C0 12.73 0 6.46 0 0 Z " fill="#E59766" transform="translate(325,62)"/>
<path d="M0 0 C0.66 0 1.32 0 2 0 C2.33 0.99 2.66 1.98 3 3 C4.49985609 4.66710346 4.49985609 4.66710346 6 6 C5.67 6.66 5.34 7.32 5 8 C5.165 8.804375 5.33 9.60875 5.5 10.4375 C6 13 6 13 5 16 C4.1605118 13.89828133 3.32860344 11.79353375 2.5 9.6875 C2.0359375 8.51574219 1.571875 7.34398438 1.09375 6.13671875 C0 3 0 3 0 0 Z " fill="#E02F2D" transform="translate(39,61)"/>
<path d="M0 0 C2.97 0.495 2.97 0.495 6 1 C5.01 3.64 4.02 6.28 3 9 C2.01 9 1.02 9 0 9 C0 6.03 0 3.06 0 0 Z " fill="#FE844F" transform="translate(130,30)"/>
<path d="M0 0 C2.31 0 4.62 0 7 0 C7 0.33 7 0.66 7 1 C5.02 1.33 3.04 1.66 1 2 C0.67 3.32 0.34 4.64 0 6 C0.66 6.33 1.32 6.66 2 7 C2 7.66 2 8.32 2 9 C0.68 8.67 -0.64 8.34 -2 8 C-2.33 9.98 -2.66 11.96 -3 14 C-4.37095624 10.30962722 -3.60010967 8.29116165 -2.0625 4.75 C-1.68222656 3.85796875 -1.30195313 2.9659375 -0.91015625 2.046875 C-0.60980469 1.37140625 -0.30945313 0.6959375 0 0 Z " fill="#EC955D" transform="translate(251,30)"/>
<path d="M0 0 C2.31 0 4.62 0 7 0 C7.99 3.3 8.98 6.6 10 10 C9.01 9.67 8.02 9.34 7 9 C6.26953125 7.15234375 6.26953125 7.15234375 5.8125 4.9375 C5.65394531 4.20402344 5.49539062 3.47054687 5.33203125 2.71484375 C5.16767578 1.86599609 5.16767578 1.86599609 5 1 C3.02 1.33 1.04 1.66 -1 2 C-0.67 1.34 -0.34 0.68 0 0 Z " fill="#D42D28" transform="translate(31,30)"/>
<path d="M0 0 C3.3 0 6.6 0 10 0 C10.33 0.99 10.66 1.98 11 3 C7.37 2.67 3.74 2.34 0 2 C0 1.34 0 0.68 0 0 Z " fill="#E39363" transform="translate(230,29)"/>
<path d="M0 0 C0.66 1.32 1.32 2.64 2 4 C-1.13498292 5.85776765 -3.37471432 6.20140476 -7 6 C-5 4 -5 4 -2 2 C-1.34 1.34 -0.68 0.68 0 0 Z " fill="#F19B63" transform="translate(323,57)"/>
<path d="M0 0 C0.33 0 0.66 0 1 0 C1 3.3 1 6.6 1 10 C0.67 8.68 0.34 7.36 0 6 C-0.66 6 -1.32 6 -2 6 C-2 4.68 -2 3.36 -2 2 C-1.34 2 -0.68 2 0 2 C0 1.34 0 0.68 0 0 Z " fill="#F9AB42" transform="translate(231,38)"/>
</svg>
